<svg width="14" height="14" viewBox="0 0 14 14" fill="none" xmlns="http://www.w3.org/2000/svg">
<g clip-path="url(#clip0_35_64)">
<path d="M12.6 0H1.4C1.0287 0 0.672601 0.1475 0.410051 0.410051C0.1475 0.672601 0 1.0287 0 1.4L0 14L2.8 11.2H12.6C12.9713 11.2 13.3274 11.0525 13.5899 10.7899C13.8525 10.5274 14 10.1713 14 9.8V1.4C14 1.0287 13.8525 0.672601 13.5899 0.410051C13.3274 0.1475 12.9713 0 12.6 0ZM9.8 2.8C10.0077 2.8 10.2107 2.86158 10.3833 2.97696C10.556 3.09233 10.6906 3.25632 10.7701 3.44818C10.8495 3.64004 10.8703 3.85116 10.8298 4.05484C10.7893 4.25852 10.6893 4.44562 10.5425 4.59246C10.3956 4.73931 10.2085 4.83931 10.0048 4.87982C9.80116 4.92034 9.59004 4.89955 9.39818 4.82007C9.20632 4.7406 9.04233 4.60602 8.92696 4.43335C8.81158 4.26068 8.75 4.05767 8.75 3.85C8.75 3.57152 8.86062 3.30445 9.05754 3.10754C9.25445 2.91062 9.52152 2.8 9.8 2.8ZM4.2 2.8C4.40767 2.8 4.61068 2.86158 4.78335 2.97696C4.95602 3.09233 5.0906 3.25632 5.17007 3.44818C5.24955 3.64004 5.27034 3.85116 5.22982 4.05484C5.18931 4.25852 5.08931 4.44562 4.94246 4.59246C4.79562 4.73931 4.60852 4.83931 4.40484 4.87982C4.20116 4.92034 3.99004 4.89955 3.79818 4.82007C3.60632 4.7406 3.44233 4.60602 3.32696 4.43335C3.21158 4.26068 3.15 4.05767 3.15 3.85C3.15 3.57152 3.26062 3.30445 3.45754 3.10754C3.65445 2.91062 3.92152 2.8 4.2 2.8ZM7 8.4C5.173 8.4 3.619 7.931 3.045 6.3H10.955C10.381 7.931 8.827 8.4 7 8.4Z" fill="#0F0C11"/>
</g>
<defs>
<clipPath id="clip0_35_64">
<rect width="14" height="14" fill="white"/>
</clipPath>
</defs>
</svg>
