<svg width="48" height="48" viewBox="0 0 48 48" fill="none" xmlns="http://www.w3.org/2000/svg">
<g clip-path="url(#clip0_4124_623)">
<g clip-path="url(#clip1_4124_623)">
<path d="M23.9999 7.02954C14.6279 7.02954 7.02954 14.6279 7.02954 23.9999C7.02954 33.3719 14.6279 40.9703 23.9999 40.9703C33.3719 40.9703 40.9703 33.3719 40.9703 23.9999C40.9703 14.6279 33.3719 7.02954 23.9999 7.02954ZM23.9999 38.5703C15.9647 38.5703 9.42954 32.0351 9.42954 23.9999C9.42954 15.9647 15.9647 9.42954 23.9999 9.42954C32.0351 9.42954 38.5703 15.9647 38.5703 23.9999C38.5703 32.0351 32.0351 38.5703 23.9999 38.5703Z" fill="#000A0C"/>
<path d="M25.4803 14.2803C25.8303 13.9304 26.305 13.7338 26.8 13.7338C27.295 13.7338 27.7697 13.9304 28.1197 14.2803L36.5197 22.6803C36.8697 23.0304 37.0663 23.5051 37.0663 24C37.0663 24.495 36.8697 24.9697 36.5197 25.3198L28.1197 33.7198C27.7677 34.0598 27.2962 34.2479 26.8067 34.2437C26.3173 34.2394 25.8491 34.0431 25.503 33.697C25.1569 33.3509 24.9606 32.8827 24.9564 32.3933C24.9521 31.9039 25.1403 31.4324 25.4803 31.0803L30.5333 25.8667H12.8C12.3049 25.8667 11.8302 25.67 11.4801 25.32C11.13 24.9699 10.9333 24.4951 10.9333 24C10.9333 23.505 11.13 23.0302 11.4801 22.6801C11.8302 22.33 12.3049 22.1334 12.8 22.1334H30.5333L25.4803 16.9198C25.1303 16.5697 24.9337 16.095 24.9337 15.6C24.9337 15.1051 25.1303 14.6304 25.4803 14.2803Z" fill="#000A0C"/>
</g>
</g>
<defs>
<clipPath id="clip0_4124_623">
<rect width="48" height="48" fill="white"/>
</clipPath>
<clipPath id="clip1_4124_623">
<rect width="48" height="48" fill="white"/>
</clipPath>
</defs>
</svg>
