<svg width="24" height="24" viewBox="0 0 24 24" fill="none" xmlns="http://www.w3.org/2000/svg">
<g clip-path="url(#clip0_4754_2624)">
<g clip-path="url(#clip1_4754_2624)">
<path d="M12 4.95477C15.8844 4.95477 19.0452 8.11557 19.0452 12C19.0452 15.8844 15.8844 19.0452 12 19.0452C8.11557 19.0452 4.95477 15.8844 4.95477 12C4.95477 8.11557 8.11557 4.95477 12 4.95477ZM12 3.51477C7.31397 3.51477 3.51477 7.31397 3.51477 12C3.51477 16.686 7.31397 20.4852 12 20.4852C16.686 20.4852 20.4852 16.686 20.4852 12C20.4852 7.31397 16.686 3.51477 12 3.51477Z" fill="#000A0C"/>
<path fill-rule="evenodd" clip-rule="evenodd" d="M17.1335 9.11881L11.5427 15.4056L9.71153 17.4636L6.10193 13.404L7.93193 11.346L9.63713 13.2636L9.71273 13.3488L15.3035 7.06201L17.1335 9.11881Z" fill="#000A0C"/>
</g>
</g>
<defs>
<clipPath id="clip0_4754_2624">
<rect width="24" height="24" fill="white"/>
</clipPath>
<clipPath id="clip1_4754_2624">
<rect width="24" height="24" fill="white"/>
</clipPath>
</defs>
</svg>
