<svg width="24" height="24" viewBox="0 0 24 24" fill="none" xmlns="http://www.w3.org/2000/svg">
<g clip-path="url(#clip0_4039_565)">
<path d="M5.35603 6.4736C4.95049 6.40017 4.58712 6.17764 4.33739 5.84978C4.08767 5.52192 3.96969 5.11248 4.00665 4.70201C4.04362 4.29154 4.23285 3.90977 4.53713 3.6318C4.84141 3.35383 5.2387 3.19979 5.65083 3.2H6.20083C6.20083 2.61652 6.43261 2.05695 6.84519 1.64437C7.25777 1.23179 7.81735 1 8.40083 1L15.0008 1C15.5843 1 16.1439 1.23179 16.5565 1.64437C16.969 2.05695 17.2008 2.61652 17.2008 3.2H17.7508C18.163 3.19979 18.5602 3.35383 18.8645 3.6318C19.1688 3.90977 19.358 4.29154 19.395 4.70201C19.432 5.11248 19.314 5.52192 19.0643 5.84978C18.8145 6.17764 18.4512 6.40017 18.0456 6.4736L17.5528 10.6591C17.9058 11.1183 18.0635 11.6981 17.9917 12.2728L17.4417 16.6728C17.3732 17.2208 17.1011 17.723 16.6794 18.0797L16.2152 22.0287C16.1837 22.2963 16.0551 22.543 15.8537 22.722C15.6524 22.901 15.3924 23 15.1229 23H8.27873C8.0093 23 7.74926 22.901 7.54792 22.722C7.34658 22.543 7.21795 22.2963 7.18643 22.0287L6.72223 18.0797C6.30054 17.723 6.02842 17.2208 5.95993 16.6728L5.40993 12.2728C5.33842 11.6979 5.49653 11.1181 5.84993 10.6591L5.35603 6.4736ZM7.57583 6.5L7.96413 9.8H15.4397L15.828 6.5H7.57583ZM8.14453 16.4H15.2593L15.8093 12H7.59343L8.14453 16.4ZM8.99923 18.6L9.25773 20.8H14.1461L14.4046 18.6H8.99923Z" fill="#003428"/>
</g>
<defs>
<clipPath id="clip0_4039_565">
<rect width="24" height="24" fill="white"/>
</clipPath>
</defs>
</svg>
