<svg width="24" height="24" viewBox="0 0 24 24" fill="none" xmlns="http://www.w3.org/2000/svg">
<g clip-path="url(#clip0_2005_937)">
<path d="M12.0002 2.86678C17.0359 2.86678 21.1335 6.96436 21.1335 12C21.1335 17.0356 17.0359 21.1332 12.0002 21.1332C6.9646 21.1332 2.86702 17.0356 2.86702 12C2.86702 6.96436 6.9646 2.86678 12.0002 2.86678ZM12.0002 1C5.92543 1 1.00024 5.92519 1.00024 12C1.00024 18.0748 5.92543 23 12.0002 23C18.0751 23 23.0002 18.0748 23.0002 12C23.0002 5.92519 18.0751 1 12.0002 1Z" fill="#003428"/>
<path fill-rule="evenodd" clip-rule="evenodd" d="M18.6556 8.26483L11.4078 16.4149L9.03389 19.0828L4.35449 13.8201L6.72686 11.1521L8.93744 13.638L9.03544 13.7485L16.2832 5.59845L18.6556 8.26483Z" fill="#003428"/>
</g>
<defs>
<clipPath id="clip0_2005_937">
<rect width="24" height="24" fill="white"/>
</clipPath>
</defs>
</svg>
