<svg width="24" height="24" viewBox="0 0 24 24" fill="none" xmlns="http://www.w3.org/2000/svg">
<g clip-path="url(#clip0_4122_663)">
<g clip-path="url(#clip1_4122_663)">
<path d="M7.75974 3.31303C8.47151 3.55365 9.14841 3.88745 9.77287 4.30575C10.6554 4.07947 11.5629 3.96595 12.4738 3.96789C13.4145 3.96789 14.3221 4.08557 15.1728 4.3048C15.797 3.8869 16.4736 3.55343 17.185 3.31303C17.8453 3.08811 18.786 2.72367 19.345 3.3434C19.7239 3.76479 19.8186 4.47089 19.8859 5.00995C19.9617 5.61166 19.9797 6.39558 19.7808 7.17381C20.5415 8.15798 21 9.33197 21 10.6113C21 12.5493 19.9522 14.232 18.4014 15.3974C17.6547 15.9506 16.827 16.3847 15.9477 16.6843C16.1505 17.1494 16.2632 17.6638 16.2632 18.2038V21.0509C16.2632 21.3026 16.1634 21.544 15.9857 21.722C15.8081 21.9 15.5671 22 15.3159 22H9.63172C9.38046 22 9.1395 21.9 8.96183 21.722C8.78417 21.544 8.68436 21.3026 8.68436 21.0509V20.1104C7.77963 20.2215 7.0208 20.1228 6.37565 19.8485C5.70113 19.5619 5.23124 19.1177 4.87788 18.6925C4.54251 18.2901 4.17683 17.3828 3.64821 17.2063C3.53015 17.1669 3.42098 17.1046 3.32695 17.023C3.23292 16.9413 3.15586 16.8419 3.10017 16.7304C2.98771 16.5053 2.96914 16.2446 3.04853 16.0057C3.12793 15.7669 3.29879 15.5694 3.52354 15.4567C3.74828 15.3441 4.0085 15.3255 4.24694 15.405C4.87788 15.6157 5.28903 16.0712 5.5704 16.4376C6.02513 17.026 6.3946 17.7947 7.11459 18.1013C7.41111 18.2275 7.84595 18.3101 8.52615 18.2171L8.68436 18.1848C8.68654 17.6683 8.79389 17.1578 8.99983 16.6843C8.12056 16.3847 7.29288 15.9506 6.54617 15.3974C4.99535 14.232 3.94757 12.5502 3.94757 10.6113C3.94757 9.33386 4.40515 8.16083 5.16398 7.1776C4.96504 6.39937 4.98209 5.61355 5.05788 5.0109L5.06261 4.97484C5.13177 4.42248 5.2123 3.77238 5.59882 3.3434C6.15776 2.72367 7.09943 3.08906 7.75879 3.31398L7.75974 3.31303Z" fill="#000A0C"/>
</g>
</g>
<defs>
<clipPath id="clip0_4122_663">
<rect width="24" height="24" fill="white"/>
</clipPath>
<clipPath id="clip1_4122_663">
<rect width="24" height="24" fill="white"/>
</clipPath>
</defs>
</svg>
