<svg width="20" height="20" viewBox="0 0 20 20" fill="none" xmlns="http://www.w3.org/2000/svg">
<path d="M19.4861 8.8256L15.4679 12.2928L16.6922 17.4781C16.7597 17.7596 16.7423 18.0548 16.6422 18.3264C16.542 18.598 16.3637 18.8338 16.1296 19.0041C15.8955 19.1743 15.6161 19.2714 15.3269 19.283C15.0377 19.2946 14.7515 19.2203 14.5045 19.0693L9.99518 16.2941L5.4832 19.0693C5.23624 19.2194 4.9504 19.2931 4.66165 19.281C4.37291 19.269 4.09419 19.1718 3.86057 19.0017C3.62696 18.8315 3.44891 18.5961 3.34884 18.325C3.24877 18.0539 3.23115 17.7592 3.2982 17.4781L4.52688 12.2928L0.508691 8.8256C0.290189 8.63675 0.132165 8.38772 0.0543528 8.1096C-0.0234593 7.83148 -0.0176104 7.5366 0.071169 7.26178C0.159948 6.98697 0.327724 6.7444 0.553542 6.56436C0.77936 6.38433 1.05321 6.27482 1.3409 6.2495L6.60919 5.82446L8.6415 0.9062C8.7515 0.638158 8.93873 0.408881 9.17937 0.24752C9.42002 0.0861578 9.70321 0 9.99295 0C10.2827 0 10.5659 0.0861578 10.8065 0.24752C11.0472 0.408881 11.2344 0.638158 11.3444 0.9062L13.3758 5.82446L18.6441 6.2495C18.9324 6.27387 19.207 6.38278 19.4336 6.56256C19.6603 6.74235 19.8288 6.98501 19.9182 7.26016C20.0075 7.53531 20.0136 7.83071 19.9358 8.10933C19.858 8.38796 19.6997 8.63743 19.4808 8.82649L19.4861 8.8256Z" fill="#74938C"/>
</svg>
