<svg width="119" height="44" viewBox="0 0 119 44" fill="none" xmlns="http://www.w3.org/2000/svg">
<path d="M64.0312 34.1914L60.75 32.0352C60.375 32.1367 59.9883 32.1875 59.5898 32.1875C57.9805 32.1875 56.75 31.7109 55.8984 30.7578C55.0547 29.8047 54.6328 28.4141 54.6328 26.5859V16.6133C54.6328 14.8398 55.0664 13.4922 55.9336 12.5703C56.8086 11.6484 58.0703 11.1875 59.7188 11.1875C61.3672 11.1875 62.625 11.6484 63.4922 12.5703C64.3672 13.4922 64.8047 14.8398 64.8047 16.6133V26.5859C64.8047 28.2891 64.4219 29.6289 63.6562 30.6055L65.4258 31.7305L64.0312 34.1914ZM59.7188 28.3906C60.0156 28.3906 60.2266 28.2812 60.3516 28.0625C60.4844 27.8438 60.5664 27.5742 60.5977 27.2539C60.6367 26.9336 60.6562 26.625 60.6562 26.3281V16.6836C60.6562 16.2461 60.5938 15.8555 60.4688 15.5117C60.3516 15.1602 60.0938 14.9844 59.6953 14.9844C59.2891 14.9844 59.0234 15.1562 58.8984 15.5C58.7734 15.8359 58.7109 16.2266 58.7109 16.6719V26.4102C58.7109 26.6836 58.7266 26.9766 58.7578 27.2891C58.7969 27.5938 58.8867 27.8555 59.0273 28.0742C59.168 28.2852 59.3984 28.3906 59.7188 28.3906ZM71.543 32.1875C69.8242 32.1875 68.5586 31.707 67.7461 30.7461C66.9336 29.7773 66.5273 28.3555 66.5273 26.4805V13.7188H70.5352V26.4336C70.5352 26.7773 70.5547 27.1094 70.5938 27.4297C70.6328 27.7422 70.7227 28 70.8633 28.2031C71.0039 28.4062 71.2305 28.5078 71.543 28.5078C71.8633 28.5078 72.0938 28.4102 72.2344 28.2148C72.375 28.0117 72.4609 27.75 72.4922 27.4297C72.5312 27.1094 72.5508 26.7773 72.5508 26.4336V13.7188H76.5586V26.4805C76.5586 28.3555 76.1523 29.7773 75.3398 30.7461C74.5273 31.707 73.2617 32.1875 71.543 32.1875ZM78.1406 32V13.7188H86.3906V17.7031H82.3359V20.7266H86.2266V24.6055H82.3359V27.9805H86.6602V32H78.1406ZM92.9297 32.1875C91.0469 32.1875 89.6875 31.7188 88.8516 30.7812C88.0234 29.8438 87.6094 28.3516 87.6094 26.3047V25.6367H91.6875V26.8672C91.6875 27.3438 91.7578 27.7188 91.8984 27.9922C92.0469 28.2578 92.3008 28.3906 92.6602 28.3906C93.0352 28.3906 93.293 28.293 93.4336 28.0977C93.582 27.8945 93.6562 27.6016 93.6562 27.2188C93.6562 26.7109 93.4844 26.2812 93.1406 25.9297C92.8047 25.5781 92.2461 25.1016 91.4648 24.5L89.6836 23.1172C88.9258 22.5312 88.3906 21.8828 88.0781 21.1719C87.7656 20.4609 87.6094 19.5977 87.6094 18.582C87.6094 16.9961 88.0156 15.7578 88.8281 14.8672C89.6484 13.9766 90.832 13.5312 92.3789 13.5312C94.2695 13.5312 95.6094 14.0234 96.3984 15.0078C97.1953 15.9922 97.5938 17.4375 97.5938 19.3438H93.4102V18.3359C93.4102 17.6641 93.0977 17.3281 92.4727 17.3281C92.1602 17.3281 91.9297 17.4219 91.7812 17.6094C91.6328 17.7891 91.5586 18.0234 91.5586 18.3125C91.5586 18.6016 91.625 18.875 91.7578 19.1328C91.8984 19.3828 92.2188 19.7109 92.7188 20.1172L95.0977 22.0508C95.9648 22.7539 96.6211 23.4922 97.0664 24.2656C97.5117 25.0391 97.7344 26.043 97.7344 27.2773C97.7344 28.1367 97.5781 28.9414 97.2656 29.6914C96.9609 30.4414 96.457 31.0469 95.7539 31.5078C95.0508 31.9609 94.1094 32.1875 92.9297 32.1875ZM100.887 32V17.6797H98.4375V13.7188H107.461V17.6797H105.012V32H100.887ZM111.105 32V25.2148L107.812 13.7188H111.902L113.051 20.7148L114.199 13.7188H118.277L114.996 25.2148V32H111.105Z" fill="#F8F8F8"/>
<g clip-path="url(#clip0_35_93)">
<path d="M34.176 15.312C34.944 16.368 33.504 17.232 33.36 17.664C32.544 21.264 31.2 24.528 30.288 28.128C29.904 30.288 31.008 32.352 32.208 34.272C34.896 37.776 37.152 41.232 41.184 42.768C41.568 43.008 41.76 43.92 41.184 43.92C38.112 43.776 35.04 43.392 32.208 42.384C28.896 41.424 27.36 38.352 25.296 35.808C25.056 35.664 24.672 35.424 24.528 35.424C23.52 35.664 22.992 36.816 22.224 37.2C19.632 38.352 17.376 36.624 14.928 36.24C11.952 36.096 9.31201 34.896 6.24001 34.272C4.56001 33.888 2.73601 33.888 1.05601 33.552C0.09601 33.552 0.48001 32.208 1.20001 31.824C2.59201 31.2 3.55201 30.48 4.12801 29.28C4.89601 27.744 4.89601 26.064 4.89601 24.336C4.70401 21.456 4.56001 18.768 4.70401 15.84C4.70401 14.928 4.89601 13.776 4.70401 12.768C4.56001 11.232 4.12801 9.31201 4.56001 8.16001C5.47201 5.85601 8.54401 5.08801 10.704 3.84001C11.232 3.55201 11.856 3.84001 11.952 4.32001C12.24 5.85601 11.616 7.39201 11.616 8.92801C11.616 14.928 10.848 20.88 11.232 27.024C11.472 27.6 11.856 28.128 12.384 28.416C16.56 29.664 20.832 31.056 25.296 31.056C26.832 31.056 27.216 28.944 27.6 27.6C27.744 26.88 27.744 26.064 27.936 25.344C28.128 23.952 27.936 22.416 27.6 21.072C26.832 18.144 25.68 15.696 24.144 13.056C23.136 11.232 21.792 8.92801 19.92 8.44801C18.912 10.32 19.536 12.384 19.296 14.304C18.912 16.992 19.296 19.536 19.296 21.984C19.296 22.416 18.912 22.8 18.528 22.992C16.992 23.52 15.648 24.528 14.112 25.488C13.776 25.68 13.488 25.056 13.392 24.912C12.768 23.52 13.152 22.272 13.152 20.88C12.768 15.84 13.152 10.704 13.392 5.71201C16.464 3.55201 19.632 1.87201 22.992 0.0960083C24.24 1.87201 25.44 3.40801 26.976 4.94401C29.664 8.01601 31.776 12.24 34.176 15.312Z" fill="#F8F8F8"/>
</g>
<defs>
<clipPath id="clip0_35_93">
<rect width="42" height="44" fill="white"/>
</clipPath>
</defs>
</svg>
