<svg width="20" height="20" viewBox="0 0 20 20" fill="none" xmlns="http://www.w3.org/2000/svg">
<path d="M18.2616 8.10836L17.8616 6.72503L16.9366 4.08336C16.7821 3.62885 16.4911 3.23308 16.1033 2.95003C15.7107 2.66599 15.2379 2.51422 14.7533 2.51669H5.19498C4.70968 2.51575 4.23615 2.66615 3.84034 2.94695C3.44452 3.22776 3.14611 3.625 2.98665 4.08336L2.04498 6.75836L1.66165 8.10836C1.65396 8.16644 1.65396 8.22528 1.66165 8.28336C1.66446 8.8657 1.82573 9.4363 2.12814 9.93397C2.43056 10.4316 2.86273 10.8376 3.37832 11.1084V15.1334C3.37609 15.4426 3.43536 15.7492 3.55267 16.0353C3.66998 16.3214 3.84299 16.5814 4.06165 16.8C4.50542 17.2386 5.10441 17.4842 5.72832 17.4834H14.295C14.6028 17.4845 14.9078 17.4246 15.1924 17.3074C15.477 17.1901 15.7356 17.0176 15.9532 16.8C16.1709 16.5823 16.3434 16.3237 16.4606 16.0391C16.5779 15.7545 16.6378 15.4495 16.6366 15.1417V11.1167C17.0858 10.885 17.4719 10.5475 17.7616 10.1334C18.1432 9.59522 18.3471 8.95136 18.345 8.29169C18.3222 8.22844 18.2943 8.16713 18.2616 8.10836ZM12.52 15.1084H7.37832C7.1573 15.1084 6.94534 15.0206 6.78906 14.8643C6.63278 14.708 6.54498 14.496 6.54498 14.275C6.54498 14.054 6.63278 13.8421 6.78906 13.6858C6.94534 13.5295 7.1573 13.4417 7.37832 13.4417H12.52C12.741 13.4417 12.953 13.5295 13.1092 13.6858C13.2655 13.8421 13.3533 14.054 13.3533 14.275C13.3533 14.496 13.2655 14.708 13.1092 14.8643C12.953 15.0206 12.741 15.1084 12.52 15.1084ZM16.6866 9.40003C16.4516 9.73253 16.12 9.98336 15.7366 10.1167C15.448 10.2146 15.1402 10.2422 14.8387 10.1972C14.5373 10.1523 14.2509 10.0361 14.0033 9.85836C13.7542 9.6825 13.5498 9.45067 13.4065 9.18147C13.2632 8.91228 13.1851 8.61323 13.1783 8.30836C13.1783 8.1426 13.1125 7.98363 12.9953 7.86642C12.878 7.74921 12.7191 7.68336 12.5533 7.68336C12.3876 7.68336 12.2286 7.74921 12.1114 7.86642C11.9942 7.98363 11.9283 8.1426 11.9283 8.30836V8.35003C11.9221 8.56044 11.8827 8.76856 11.8116 8.96669C11.6718 9.34263 11.4221 9.66782 11.095 9.90003C10.7724 10.1331 10.3846 10.2585 9.98665 10.2584C9.58268 10.2592 9.18861 10.1334 8.85979 9.89873C8.53097 9.66407 8.28391 9.3323 8.15332 8.95003C8.07676 8.75632 8.03718 8.54998 8.03665 8.34169C8.03665 8.17593 7.9708 8.01696 7.85359 7.89975C7.73638 7.78254 7.57741 7.71669 7.41165 7.71669C7.24589 7.71669 7.08692 7.78254 6.96971 7.89975C6.8525 8.01696 6.78665 8.17593 6.78665 8.34169C6.7799 8.64773 6.7018 8.94796 6.55858 9.2185C6.41535 9.48903 6.21095 9.7224 5.96165 9.90003C5.63294 10.1334 5.23976 10.2586 4.83665 10.2584C4.6181 10.2521 4.40176 10.2127 4.19498 10.1417C3.81396 10.0113 3.48421 9.7633 3.25332 9.43336C3.04029 9.12945 2.91883 8.77084 2.90332 8.40003L3.24498 7.16669L4.16998 4.53336C4.24454 4.31882 4.38415 4.13288 4.56937 4.00143C4.75459 3.86998 4.97619 3.79958 5.20332 3.80003H14.7616C14.9866 3.80336 15.2075 3.87336 15.395 4.00003C15.5775 4.13336 15.7141 4.31919 15.7866 4.53336L16.7033 7.13336L17.0616 8.40003C17.0268 8.76335 16.8912 9.1097 16.67 9.40003H16.6866Z" fill="#0F0C11"/>
</svg>
